<?xml version="1.0" encoding="UTF-8"?><svg id="Layer_1" xmlns="http://www.w3.org/2000/svg" viewBox="0 0 387.85 142.67"><defs><style>.cls-1{fill:#1e1f1e;}</style></defs><path class="cls-1" d="M100.34,58.23c0,9.94-2.92,19.19-7.97,26.95-3.53,5.44-8.11,10.15-13.44,13.83-6.17,4.27-13.37,7.17-21.14,8.27-2.28.32-4.61.49-6.98.49-.96,0-1.91-.03-2.85-.08v-22.3c1.29.19,2.6.29,3.94.29,1.77,0,3.5-.17,5.18-.5,5.28-1.02,10.02-3.58,13.72-7.2,5.02-4.91,8.14-11.76,8.14-19.34,0-14.94-12.11-27.04-27.04-27.04h-27.92V8.71h23.98v.08c.95-.05,1.9-.08,2.85-.08,10.45,0,20.14,3.24,28.13,8.76,5.43,3.75,10.08,8.56,13.64,14.13,4.92,7.69,7.77,16.83,7.77,26.63Z"/><path class="cls-1" d="M47.95,110.54v23.43c-9.18-.29-17.72-3.08-24.98-7.7-6.29-4-11.62-9.39-15.55-15.72C3,103.41.33,95.07.03,86.14c-.02-.56-.03-1.13-.03-1.69v-51.89h22.97v53.58c0,7.59,3.48,14.37,8.93,18.85,4.22,3.47,9.63,5.55,15.51,5.55h.54Z"/><path class="cls-1" d="M140.04,18.07c-1.83-2-4.83-3.01-9.03-3.01h-1.59c-2.79,0-4.86.74-6.24,2.22-.9.95-1.51,2.12-1.82,3.5v-5.71h-14.78v55.59h15.05v-16.18c.34.98.87,1.82,1.55,2.54,1.38,1.48,3.45,2.22,6.24,2.22h1.59c4.19,0,7.19-1.01,9.03-3.01,1.83-2,2.74-4.66,2.74-7.96v-22.23c0-3.3-.91-5.96-2.74-7.96ZM127.73,46.21c0,.65-.17,1.14-.53,1.46-.36.33-.92.48-1.68.48h-1.51c-.77,0-1.36-.2-1.78-.61-.41-.41-.61-1.09-.61-2.03v-16.75c0-.94.2-1.62.61-2.03s1.01-.61,1.78-.61h1.51c.75,0,1.32.16,1.68.48.36.33.53.81.53,1.46v18.14Z"/><path class="cls-1" d="M169.52,15.05v5.71c-.31-1.38-.92-2.54-1.82-3.5-1.38-1.48-3.47-2.22-6.24-2.22h-1.59c-4.19,0-7.19,1.01-9.03,3.01-1.83,2-2.74,4.66-2.74,7.96v22.23c0,3.3.91,5.96,2.74,7.96,1.83,2,4.83,3.01,9.03,3.01h1.59c2.77,0,4.86-.74,6.24-2.22.68-.72,1.21-1.56,1.55-2.54v4.76h15.05V15.05h-14.78ZM168.69,47.55c-.38.41-1,.61-1.82.61h-1.51c-.77,0-1.32-.16-1.68-.48-.36-.33-.53-.81-.53-1.46v-18.14c0-.65.17-1.14.53-1.46.36-.33.91-.48,1.68-.48h1.51c.82,0,1.44.2,1.82.61.38.41.57,1.09.57,2.03v16.75c0,.94-.18,1.62-.57,2.03Z"/><path class="cls-1" d="M224.86,18.07c-1.83-2-4.85-3.01-9.03-3.01h-1.61c-2.77,0-4.85.74-6.24,2.22-.9.95-1.49,2.12-1.81,3.5v-5.71h-14.8v55.59h15.05v-16.22c.34.99.85,1.85,1.55,2.59,1.39,1.48,3.47,2.22,6.24,2.22h1.61c4.18,0,7.19-1.01,9.03-3.01,1.82-2,2.74-4.66,2.74-7.96v-22.23c0-3.3-.92-5.96-2.74-7.96ZM212.55,46.21c0,.65-.17,1.14-.53,1.46-.36.33-.92.48-1.69.48h-1.49c-.77,0-1.36-.2-1.78-.61s-.63-1.09-.63-2.03v-16.75c0-.94.21-1.62.63-2.03.41-.41,1.01-.61,1.78-.61h1.49c.77,0,1.34.16,1.69.48.36.33.53.81.53,1.46v18.14Z"/><path class="cls-1" d="M266.78,18.07c-1.98-2-5.33-3.01-10.05-3.01h-10.8c-4.72,0-8.07,1.01-10.05,3.01-1.98,2-2.96,4.66-2.96,7.96v22.23c0,3.3.98,5.96,2.96,7.96,1.98,2,5.33,3.01,10.05,3.01h10.8c4.72,0,8.07-1.01,10.05-3.01,1.98-2,2.97-4.66,2.97-7.96v-3.99h-14.26v2.49c0,.65-.18,1.17-.53,1.55-.36.38-.92.57-1.69.57h-3.89c-.77,0-1.32-.16-1.68-.48-.36-.33-.54-.81-.54-1.46v-5.84h22.59v-15.05c0-3.3-.99-5.96-2.97-7.96ZM247.17,32.94v-5.57c0-.65.18-1.14.54-1.46.36-.33.91-.48,1.68-.48h3.89c.77,0,1.34.16,1.69.48.34.33.53.81.53,1.46v5.57h-8.33Z"/><path class="cls-1" d="M301.18,14.61v13.11h-5.05c-3.72,0-5.59,2-5.59,6.01v25.5h-15.05V15.05h14.78v6.81c.2-.92.5-1.78.9-2.56.77-1.48,1.89-2.63,3.37-3.45,1.46-.82,3.24-1.24,5.3-1.24h1.34Z"/><path class="cls-1" d="M343.23,0v59.23h-14.7V26.13h-6.72v33.11h-14.78V26.13h-4.52v-11.07h4.52v-4.08c0-3.3.98-5.96,2.96-7.96,1.98-2,5.33-3.01,10.05-3.01h5.4v10.45h-1.41c-.77,0-1.34.17-1.69.48-.36.33-.53.81-.53,1.46v2.66h6.72V0h14.7Z"/><path class="cls-1" d="M372.71,15.05l-4.78,26.91-5.4-26.91h-15.76l12.14,40.64h5.76l-14.46,54.22,12.22,2.12,25.42-96.97h-15.14ZM345.62,127.12l12.3,2.13,3.72-14.21-12.22-2.13-3.8,14.21Z"/><path class="cls-1" d="M129.94,64.63v21.86c-.38-1.07-.95-2-1.71-2.8-1.52-1.62-3.82-2.43-6.89-2.43h-1.75c-4.63,0-7.96,1.09-9.98,3.31s-3.03,5.16-3.03,8.81v24.53c0,3.65,1.01,6.6,3.03,8.8,2.02,2.23,5.34,3.33,9.98,3.33h1.75c3.07,0,5.37-.81,6.89-2.43,1-1.05,1.66-2.35,2-3.85v6.28h16.33v-65.42h-16.63ZM127.31,117.83h-1.66c-.85,0-1.46-.17-1.86-.53-.38-.37-.58-.9-.58-1.62v-20.04c0-.72.2-1.25.58-1.62.4-.36,1.01-.53,1.86-.53h1.66c.91,0,1.58.21,2,.68.43.45.63,1.21.63,2.25v18.48c0,1.05-.2,1.79-.63,2.25-.43.47-1.09.68-2,.68Z"/><path class="cls-1" d="M154.1,76.37v-11.73h17.21v11.73h-17.21ZM171.02,130.06h-16.62v-48.8h16.62v48.8Z"/><path class="cls-1" d="M201.54,81.27v6.35c-.33-1.55-1.01-2.86-2.02-3.92-1.52-1.62-3.82-2.43-6.88-2.43h-1.76c-4.63,0-7.96,1.09-9.98,3.31-2.02,2.22-3.03,5.16-3.03,8.81v21.61c0,3.65,1.01,6.58,3.03,8.8,2.02,2.22,5.34,3.33,9.98,3.33h1.76c3.06,0,5.36-.81,6.88-2.44.77-.81,1.34-1.75,1.72-2.83v6.94c0,.72-.2,1.25-.58,1.62-.38.36-1.01.53-1.86.53h-18.68v11.74h23.37c5.22,0,8.91-1.11,11.1-3.33,2.19-2.22,3.27-5.15,3.27-8.8v-49.28h-16.32ZM200.61,114.22c-.44.45-1.11.68-2,.68h-1.66c-.85,0-1.48-.17-1.86-.54-.4-.36-.58-.9-.58-1.61v-17.11c0-.72.18-1.25.58-1.62.38-.36,1.01-.53,1.86-.53h1.66c.9,0,1.56.21,2,.68.41.45.63,1.21.63,2.25v15.55c0,1.04-.21,1.79-.63,2.25Z"/><path class="cls-1" d="M225.4,76.37v-11.73h17.21v11.73h-17.21ZM242.31,130.06h-16.62v-48.8h16.62v48.8Z"/><path class="cls-1" d="M268.71,93.49v22.19c0,.72.2,1.25.58,1.62.4.36,1.02.53,1.86.53h3.62v12.22h-8.32c-5.22,0-8.91-1.09-11.1-3.33-2.19-2.2-3.28-5.15-3.28-8.8v-24.44h-5.37v-12.22h5.37v-9.59h16.63v9.59h6.16v12.22h-6.16Z"/><path class="cls-1" d="M302.45,81.27v6.28c-.34-1.51-1.01-2.8-2-3.85-1.52-1.62-3.82-2.43-6.89-2.43h-1.75c-4.63,0-7.96,1.09-9.98,3.31-2.02,2.22-3.03,5.16-3.03,8.81v24.53c0,3.65,1.01,6.6,3.03,8.8,2.02,2.23,5.34,3.33,9.98,3.33h1.75c3.07,0,5.37-.81,6.89-2.43.77-.81,1.35-1.78,1.72-2.87v5.3h16.62v-48.79h-16.33ZM301.52,117.14c-.43.47-1.09.68-2,.68h-1.66c-.85,0-1.46-.17-1.86-.53-.38-.37-.58-.9-.58-1.62v-20.04c0-.72.2-1.25.58-1.62.4-.36,1.01-.53,1.86-.53h1.66c.91,0,1.58.21,2,.68.43.45.64,1.21.64,2.25v18.48c0,1.05-.21,1.79-.64,2.25Z"/><path class="cls-1" d="M343.23,130.06h-16.62v-65.42h16.62v65.42Z"/></svg>